<?xml version="1.0" encoding="utf-8"?>
<!-- Generator: Adobe Illustrator 22.1.0, SVG Export Plug-In . SVG Version: 6.00 Build 0)  -->
<svg version="1.1" id="Layer_1" xmlns="http://www.w3.org/2000/svg" xmlns:xlink="http://www.w3.org/1999/xlink" x="0px" y="0px"
	 viewBox="0 0 76.2 61.5" style="enable-background:new 0 0 76.2 61.5;" xml:space="preserve">
<style type="text/css">
	.st0{fill:#FFFFFF;}
	.st1{fill:#FFCA28;}
</style>
<g>
	<path class="st0" d="M58.7,35.8c-2.2,0.4-3.2-0.6-4.1-2c-0.9-0.2-1.7-0.3-2.6-0.3c-0.5,0-1.1,0.1-1.7,0.2
		c-1.5-5.3-5.5-9.4-10.6-11.2c-1.6,0-3.4-0.4-5.1-1.1c0,0-0.1,0.1-0.1,0.1c-0.2,0-0.3,0-0.5,0c-7.7,0-14.2,5-16.3,12.2
		c-0.6-0.1-1.2-0.2-1.7-0.2c-6.1,0-11,4.9-11,11s4.9,11,11,11h36c6.1,0,11-4.9,11-11C63,41,61.3,37.8,58.7,35.8z M52,51.5H16
		c-3.9,0-7-3.1-7-7s3.1-7,7-7c0.3,0,0.7,0.1,1.2,0.2v1.8c0,1.1,0.9,2,2,2c1.1,0,2-0.9,2-2v-3.2C22.3,30,27.6,25.5,34,25.5
		c6.4,0,11.7,4.5,12.8,10.8v3.2c0,1.1,0.9,2,2,2s2-0.9,2-2v-1.8c0.5-0.1,0.9-0.2,1.2-0.2c3.9,0,7,3.1,7,7S55.9,51.5,52,51.5z"/>
	<path class="st1" d="M39.1,22.3c1.8-1.8,4.3-2.8,6.9-2.8c5.5,0,10,4.5,10,10c0,1.5-0.4,3-1,4.4c-0.1,0-0.2-0.1-0.3-0.1
		c0.9,1.3,1.9,2.3,4.1,2c-0.1,0-0.1-0.1-0.2-0.1c0.9-1.9,1.4-4,1.4-6.2c0-7.7-6.3-14-14-14c-4.5,0-8.8,2.2-11.4,5.9
		c1.7,0.7,3.5,1.1,5.1,1.1C39.5,22.4,39.3,22.3,39.1,22.3z"/>
	<path class="st1" d="M46,11.5c1.1,0,2-0.9,2-2v-4c0-1.1-0.9-2-2-2c-1.1,0-2,0.9-2,2v4C44,10.6,44.9,11.5,46,11.5z"/>
	<path class="st1" d="M70,27.5h-4c-1.1,0-2,0.9-2,2s0.9,2,2,2h4c1.1,0,2-0.9,2-2S71.1,27.5,70,27.5z"/>
	<path class="st1" d="M60.1,17.4c0.5,0,1-0.2,1.4-0.6l2.8-2.8c0.8-0.8,0.8-2,0-2.8c-0.8-0.8-2-0.8-2.8,0l-2.8,2.8
		c-0.8,0.8-0.8,2,0,2.8C59.1,17.2,59.6,17.4,60.1,17.4z"/>
	<path class="st1" d="M30.4,16.8c0.4,0.4,0.9,0.6,1.4,0.6s1-0.2,1.4-0.6c0.8-0.8,0.8-2,0-2.8l-2.8-2.8c-0.8-0.8-2-0.8-2.8,0
		s-0.8,2,0,2.8L30.4,16.8z"/>
</g>
</svg>
