<svg xmlns="http://www.w3.org/2000/svg" viewBox="0 0 448 447"><defs><style>.cls-1{isolation:isolate;}.cls-2,.cls-9{fill:none;}.cls-10,.cls-12,.cls-2{stroke:#000;}.cls-10,.cls-12,.cls-14,.cls-16,.cls-2{stroke-miterlimit:10;}.cls-3{fill:#3fa9f5;}.cls-4{fill:#ff931e;}.cls-5{fill:#7ac943;}.cls-6{fill:#ff1d25;}.cls-7{fill:#ff7bac;}.cls-8{fill:#a57bd7;}.cls-10,.cls-16{fill:#fff;}.cls-11{opacity:0.25;mix-blend-mode:multiply;}.cls-12,.cls-14{font-size:20px;stroke-width:0.5px;}.cls-12,.cls-14,.cls-16{font-family:FugazOne-Regular, Fugaz One;}.cls-13{font-size:26px;}.cls-14,.cls-16{stroke:#fff;}.cls-15{opacity:0.4;mix-blend-mode:screen;}.cls-16{font-size:22.33px;stroke-width:0.43px;}.cls-17{font-size:21.47px;}.cls-18{font-size:20.61px;}.cls-19{font-size:19.75px;}.cls-20{font-size:18.9px;}.cls-21{font-size:18.04px;}.cls-22{font-size:17.18px;}.cls-23{font-size:16.32px;}</style></defs><title>wheel</title><g class="cls-1"><g id="Layer_1" data-name="Layer 1"><circle class="cls-2" cx="223" cy="224" r="218.5"/><path class="cls-3" d="M303.8,27.79,223,224,250.24,13.76l.49.06A212.63,212.63,0,0,1,303.8,27.79Z"/><path class="cls-4" d="M391.32,94.29,223,224,351.93,55.27A213.1,213.1,0,0,1,391.32,94.29Z"/><path class="cls-5" d="M351.93,55.27,223,224,303.8,27.79A211.39,211.39,0,0,1,351.93,55.27Z"/><path class="cls-6" d="M419.36,142.19,223,224,391.32,94.29A214.26,214.26,0,0,1,419.36,142.19Z"/><path class="cls-7" d="M434,195.78,223,224l196.36-81.81A211.22,211.22,0,0,1,434,195.78Z"/><path d="M434.23,251.37,223,224l211-28.22A212.26,212.26,0,0,1,434.23,251.37Z"/><path class="cls-8" d="M434.23,251.37l-.06.49a213.18,213.18,0,0,1-14.06,53.31L223,224Z"/><path class="cls-3" d="M420.11,305.17a210.79,210.79,0,0,1-27.69,48.28L223,224Z"/><path class="cls-5" d="M392.42,353.45a212.86,212.86,0,0,1-39.28,39.43L223,224Z"/><path class="cls-4" d="M353.14,392.88A213.59,213.59,0,0,1,305,420.82L223,224Z"/><path class="cls-6" d="M305,420.82a210.76,210.76,0,0,1-53.74,14.46L223,224Z"/><path class="cls-7" d="M251.26,435.28a212.8,212.8,0,0,1-55.13,0l-.5-.07L223,224Z"/><path d="M223,224,195.63,435.23a212.51,212.51,0,0,1-53.69-14.36Z"/><path class="cls-8" d="M223,224,141.94,420.87A211.89,211.89,0,0,1,93.85,393Z"/><path class="cls-3" d="M223,224,93.85,393a213.81,213.81,0,0,1-39.17-39.32Z"/><path class="cls-5" d="M223,224,54.68,353.71a213.22,213.22,0,0,1-27.7-48Z"/><path class="cls-4" d="M223,224,27,305.67a210.89,210.89,0,0,1-14.3-53.54Z"/><path class="cls-6" d="M223,224,12.68,252.13a212.59,212.59,0,0,1,0-54.87l.07-.5Z"/><path class="cls-8" d="M223,224,54.66,95.38A213.5,213.5,0,0,1,93.72,56.24Z"/><path class="cls-4" d="M223,224,93.72,56.24a213.35,213.35,0,0,1,47.8-27.8Z"/><path class="cls-6" d="M223,224,141.52,28.44a211.67,211.67,0,0,1,53.39-14.51Z"/><line class="cls-9" x1="250.24" y1="13.76" x2="255.38" y2="-25.91"/><path d="M250.24,13.76,223,224,194.91,13.93A212.48,212.48,0,0,1,250.24,13.76Z"/><line class="cls-9" x1="194.91" y1="13.93" x2="189.59" y2="-25.77"/><line class="cls-9" x1="141.52" y1="28.44" x2="126.08" y2="-8.62"/><line class="cls-9" x1="93.72" y1="56.24" x2="69.18" y2="24.39"/><path d="M223,224,27,143.3A211.81,211.81,0,0,1,54.66,95.38Z"/><line class="cls-9" x1="54.66" y1="95.38" x2="22.76" y2="71.01"/><path class="cls-7" d="M223,224,12.76,196.76A212.24,212.24,0,0,1,27,143.3Z"/><line class="cls-9" x1="27.02" y1="143.3" x2="-10.01" y2="128.05"/><line class="cls-9" x1="12.76" y1="196.76" x2="-26.91" y2="191.62"/><line class="cls-9" x1="12.68" y1="252.13" x2="-26.77" y2="257.41"/><line class="cls-9" x1="26.98" y1="305.67" x2="-9.62" y2="320.92"/><line class="cls-9" x1="54.68" y1="353.71" x2="23.39" y2="377.82"/><line class="cls-9" x1="93.85" y1="393.03" x2="70.01" y2="424.24"/><line class="cls-9" x1="141.94" y1="420.87" x2="127.05" y2="457.01"/><line class="cls-9" x1="190.62" y1="473.91" x2="195.63" y2="435.23"/><line class="cls-9" x1="256.41" y1="473.77" x2="251.26" y2="435.28"/><line class="cls-9" x1="319.92" y1="456.62" x2="305" y2="420.82"/><line class="cls-9" x1="376.82" y1="423.61" x2="353.14" y2="392.88"/><line class="cls-9" x1="423.24" y1="376.99" x2="392.42" y2="353.45"/><line class="cls-9" x1="456.01" y1="319.95" x2="420.11" y2="305.17"/><line class="cls-9" x1="472.91" y1="256.38" x2="434.23" y2="251.37"/><line class="cls-9" x1="472.77" y1="190.59" x2="434.02" y2="195.78"/><line class="cls-9" x1="455.62" y1="127.08" x2="419.36" y2="142.19"/><line class="cls-9" x1="422.61" y1="70.18" x2="391.32" y2="94.29"/><line class="cls-9" x1="375.99" y1="23.76" x2="351.93" y2="55.27"/><line class="cls-9" x1="318.95" y1="-9.01" x2="303.8" y2="27.79"/><circle class="cls-10" cx="223" cy="224" r="55.15"/><g class="cls-11"><text class="cls-12" transform="translate(127.5 69.71) rotate(-30.13)">$<tspan class="cls-13"><tspan x="-1.94" y="26">5</tspan><tspan x="-2.29" y="48">0</tspan><tspan x="-2.29" y="70">0</tspan></tspan></text></g><text class="cls-14" transform="translate(124.5 68.71) rotate(-30.13)">$<tspan class="cls-13"><tspan x="-1.94" y="26">5</tspan><tspan x="-2.29" y="48">0</tspan><tspan x="-2.29" y="70">0</tspan></tspan></text><g class="cls-11"><text class="cls-12" transform="translate(92.03 100.29) rotate(-46.35)">$<tspan class="cls-13"><tspan x="-2.1" y="26">6</tspan><tspan x="-1.94" y="48">5</tspan><tspan x="-2.29" y="70">0</tspan></tspan></text></g><text class="cls-14" transform="translate(89.03 99.29) rotate(-46.35)">$<tspan class="cls-13"><tspan x="-2.1" y="26">6</tspan><tspan x="-1.94" y="48">5</tspan><tspan x="-2.29" y="70">0</tspan></tspan></text><g class="cls-11"><text class="cls-12" transform="translate(168.42 49.22) rotate(-18.24)">$<tspan class="cls-13"><tspan x="-2.1" y="26">9</tspan><tspan x="-2.29" y="48">0</tspan><tspan x="-2.29" y="70">0</tspan></tspan></text></g><text class="cls-14" transform="translate(165.42 48.22) rotate(-18.24)">$<tspan class="cls-13"><tspan x="-2.1" y="26">9</tspan><tspan x="-2.29" y="48">0</tspan><tspan x="-2.29" y="70">0</tspan></tspan></text><g class="cls-15"><text class="cls-16" transform="translate(57.87 136.65) rotate(-60.35)">B<tspan class="cls-17"><tspan x="0.45" y="17.18">A</tspan></tspan><tspan class="cls-18"><tspan x="0.15" y="34.36">N</tspan></tspan><tspan class="cls-19"><tspan x="0.86" y="51.53">K</tspan></tspan><tspan class="cls-20"><tspan x="1.14" y="67.53">R</tspan></tspan><tspan class="cls-21"><tspan x="1.1" y="82.53">U</tspan></tspan><tspan class="cls-22"><tspan x="1.86" y="97.53">P</tspan></tspan><tspan class="cls-23"><tspan x="1.66" y="112.13">T</tspan></tspan></text></g><text class="cls-16" transform="translate(54.87 135.65) rotate(-60.35)">B<tspan class="cls-17"><tspan x="0.45" y="17.18">A</tspan></tspan><tspan class="cls-18"><tspan x="0.15" y="34.36">N</tspan></tspan><tspan class="cls-19"><tspan x="0.86" y="51.53">K</tspan></tspan><tspan class="cls-20"><tspan x="1.14" y="67.53">R</tspan></tspan><tspan class="cls-21"><tspan x="1.1" y="82.53">U</tspan></tspan><tspan class="cls-22"><tspan x="1.86" y="97.53">P</tspan></tspan><tspan class="cls-23"><tspan x="1.66" y="112.13">T</tspan></tspan></text><g class="cls-15"><text class="cls-16" transform="translate(217.05 40.96) rotate(-0.74)">B<tspan class="cls-17"><tspan x="0.45" y="17.18">A</tspan></tspan><tspan class="cls-18"><tspan x="0.15" y="34.36">N</tspan></tspan><tspan class="cls-19"><tspan x="0.86" y="51.53">K</tspan></tspan><tspan class="cls-20"><tspan x="1.14" y="67.53">R</tspan></tspan><tspan class="cls-21"><tspan x="1.1" y="82.53">U</tspan></tspan><tspan class="cls-22"><tspan x="1.86" y="97.53">P</tspan></tspan><tspan class="cls-23"><tspan x="1.66" y="112.13">T</tspan></tspan></text></g><text class="cls-16" transform="translate(214.05 39.96) rotate(-0.74)">B<tspan class="cls-17"><tspan x="0.45" y="17.18">A</tspan></tspan><tspan class="cls-18"><tspan x="0.15" y="34.36">N</tspan></tspan><tspan class="cls-19"><tspan x="0.86" y="51.53">K</tspan></tspan><tspan class="cls-20"><tspan x="1.14" y="67.53">R</tspan></tspan><tspan class="cls-21"><tspan x="1.1" y="82.53">U</tspan></tspan><tspan class="cls-22"><tspan x="1.86" y="97.53">P</tspan></tspan><tspan class="cls-23"><tspan x="1.66" y="112.13">T</tspan></tspan></text><g class="cls-15"><text class="cls-16" transform="matrix(0, 1, -1, 0, 412.02, 216.98)">B<tspan class="cls-17"><tspan x="0.45" y="17.18">A</tspan></tspan><tspan class="cls-18"><tspan x="0.15" y="34.36">N</tspan></tspan><tspan class="cls-19"><tspan x="0.86" y="51.53">K</tspan></tspan><tspan class="cls-20"><tspan x="1.14" y="67.53">R</tspan></tspan><tspan class="cls-21"><tspan x="1.1" y="82.53">U</tspan></tspan><tspan class="cls-22"><tspan x="1.86" y="97.53">P</tspan></tspan><tspan class="cls-23"><tspan x="1.66" y="112.13">T</tspan></tspan></text></g><text class="cls-16" transform="matrix(0, 1, -1, 0, 409.02, 215.98)">B<tspan class="cls-17"><tspan x="0.45" y="17.18">A</tspan></tspan><tspan class="cls-18"><tspan x="0.15" y="34.36">N</tspan></tspan><tspan class="cls-19"><tspan x="0.86" y="51.53">K</tspan></tspan><tspan class="cls-20"><tspan x="1.14" y="67.53">R</tspan></tspan><tspan class="cls-21"><tspan x="1.1" y="82.53">U</tspan></tspan><tspan class="cls-22"><tspan x="1.86" y="97.53">P</tspan></tspan><tspan class="cls-23"><tspan x="1.66" y="112.13">T</tspan></tspan></text><g class="cls-15"><text class="cls-16" transform="matrix(-0.97, -0.26, 0.26, -0.97, 184.9, 406.67)">B<tspan class="cls-17"><tspan x="0.45" y="17.18">A</tspan></tspan><tspan class="cls-18"><tspan x="0.15" y="34.36">N</tspan></tspan><tspan class="cls-19"><tspan x="0.86" y="51.53">K</tspan></tspan><tspan class="cls-20"><tspan x="1.14" y="67.53">R</tspan></tspan><tspan class="cls-21"><tspan x="1.1" y="82.53">U</tspan></tspan><tspan class="cls-22"><tspan x="1.86" y="97.53">P</tspan></tspan><tspan class="cls-23"><tspan x="1.66" y="112.13">T</tspan></tspan></text></g><text class="cls-16" transform="matrix(-0.97, -0.26, 0.26, -0.97, 181.9, 405.67)">B<tspan class="cls-17"><tspan x="0.45" y="17.18">A</tspan></tspan><tspan class="cls-18"><tspan x="0.15" y="34.36">N</tspan></tspan><tspan class="cls-19"><tspan x="0.86" y="51.53">K</tspan></tspan><tspan class="cls-20"><tspan x="1.14" y="67.53">R</tspan></tspan><tspan class="cls-21"><tspan x="1.1" y="82.53">U</tspan></tspan><tspan class="cls-22"><tspan x="1.86" y="97.53">P</tspan></tspan><tspan class="cls-23"><tspan x="1.66" y="112.13">T</tspan></tspan></text><g class="cls-11"><text class="cls-12" transform="translate(45.76 185.16) rotate(-75.55)">$<tspan class="cls-13"><tspan x="-1.83" y="26">8</tspan><tspan x="-2.29" y="48">0</tspan><tspan x="-2.29" y="70">0</tspan></tspan></text></g><text class="cls-14" transform="translate(42.76 184.16) rotate(-75.55)">$<tspan class="cls-13"><tspan x="-1.83" y="26">8</tspan><tspan x="-2.29" y="48">0</tspan><tspan x="-2.29" y="70">0</tspan></tspan></text><g class="cls-11"><text class="cls-12" transform="matrix(-0.01, -1, 1, -0.01, 43.39, 232.72)">$<tspan class="cls-13"><tspan x="-1.94" y="26">5</tspan><tspan x="-2.29" y="48">0</tspan><tspan x="-2.29" y="70">0</tspan></tspan></text></g><text class="cls-14" transform="matrix(-0.01, -1, 1, -0.01, 40.39, 231.72)">$<tspan class="cls-13"><tspan x="-1.94" y="26">5</tspan><tspan x="-2.29" y="48">0</tspan><tspan x="-2.29" y="70">0</tspan></tspan></text><g class="cls-11"><text class="cls-12" transform="translate(49.9 280.07) rotate(-104.91)">$<tspan class="cls-13"><tspan x="-1.11" y="26">7</tspan><tspan x="-2.29" y="48">0</tspan><tspan x="-2.29" y="70">0</tspan></tspan></text></g><text class="cls-14" transform="translate(46.9 279.07) rotate(-104.91)">$<tspan class="cls-13"><tspan x="-1.11" y="26">7</tspan><tspan x="-2.29" y="48">0</tspan><tspan x="-2.29" y="70">0</tspan></tspan></text><g class="cls-11"><text class="cls-12" transform="translate(68.4 323.5) rotate(-120.7)">$<tspan class="cls-13"><tspan x="-0.28" y="26">1</tspan><tspan x="-2.29" y="48">0</tspan><tspan x="-2.29" y="70">0</tspan><tspan x="-2.29" y="92">0</tspan></tspan></text></g><text class="cls-14" transform="translate(65.4 322.5) rotate(-120.7)">$<tspan class="cls-13"><tspan x="-0.28" y="26">1</tspan><tspan x="-2.29" y="48">0</tspan><tspan x="-2.29" y="70">0</tspan><tspan x="-2.29" y="92">0</tspan></tspan></text><g class="cls-11"><text class="cls-12" transform="matrix(-0.71, -0.7, 0.7, -0.71, 101.08, 359.6)">$<tspan class="cls-13"><tspan x="-2.1" y="26">6</tspan><tspan x="-1.94" y="48">5</tspan><tspan x="-2.29" y="70">0</tspan></tspan></text></g><text class="cls-14" transform="matrix(-0.71, -0.7, 0.7, -0.71, 98.08, 358.6)">$<tspan class="cls-13"><tspan x="-2.1" y="26">6</tspan><tspan x="-1.94" y="48">5</tspan><tspan x="-2.29" y="70">0</tspan></tspan></text><g class="cls-11"><text class="cls-12" transform="matrix(-0.86, -0.5, 0.5, -0.86, 139.36, 388.35)">$<tspan class="cls-13"><tspan x="-2.1" y="26">6</tspan><tspan x="-2.29" y="48">0</tspan><tspan x="-2.29" y="70">0</tspan></tspan></text></g><text class="cls-14" transform="matrix(-0.86, -0.5, 0.5, -0.86, 136.36, 387.35)">$<tspan class="cls-13"><tspan x="-2.1" y="26">6</tspan><tspan x="-2.29" y="48">0</tspan><tspan x="-2.29" y="70">0</tspan></tspan></text><g class="cls-11"><text class="cls-12" transform="translate(231.48 409.58) rotate(-178.55)">$<tspan class="cls-13"><tspan x="-1.94" y="26">5</tspan><tspan x="-2.29" y="48">0</tspan><tspan x="-2.29" y="70">0</tspan></tspan></text></g><text class="cls-14" transform="translate(228.48 408.58) rotate(-178.55)">$<tspan class="cls-13"><tspan x="-1.94" y="26">5</tspan><tspan x="-2.29" y="48">0</tspan><tspan x="-2.29" y="70">0</tspan></tspan></text><g class="cls-11"><text class="cls-12" transform="translate(279.06 399.94) rotate(165.97)">$<tspan class="cls-13"><tspan x="-1.94" y="26">5</tspan><tspan x="-1.94" y="48">5</tspan><tspan x="-2.29" y="70">0</tspan></tspan></text></g><text class="cls-14" transform="translate(276.06 398.94) rotate(165.97)">$<tspan class="cls-13"><tspan x="-1.94" y="26">5</tspan><tspan x="-1.94" y="48">5</tspan><tspan x="-2.29" y="70">0</tspan></tspan></text><g class="cls-11"><text class="cls-12" transform="matrix(-0.87, 0.49, -0.49, -0.87, 322.62, 380.66)">$<tspan class="cls-13"><tspan x="-1.97" y="26">2</tspan><tspan x="-1.94" y="48">5</tspan><tspan x="-2.29" y="70">0</tspan></tspan></text></g><text class="cls-14" transform="matrix(-0.87, 0.49, -0.49, -0.87, 319.62, 379.66)">$<tspan class="cls-13"><tspan x="-1.97" y="26">2</tspan><tspan x="-1.94" y="48">5</tspan><tspan x="-2.29" y="70">0</tspan></tspan></text><g class="cls-11"><text class="cls-12" transform="matrix(-0.7, 0.72, -0.72, -0.7, 362.03, 351.56)">$<tspan class="cls-13"><tspan x="-1.94" y="26">5</tspan><tspan x="-2.29" y="48">0</tspan><tspan x="-2.29" y="70">0</tspan><tspan x="-2.29" y="92">0</tspan></tspan></text></g><text class="cls-14" transform="matrix(-0.7, 0.72, -0.72, -0.7, 359.03, 350.56)">$<tspan class="cls-13"><tspan x="-1.94" y="26">5</tspan><tspan x="-2.29" y="48">0</tspan><tspan x="-2.29" y="70">0</tspan><tspan x="-2.29" y="92">0</tspan></tspan></text><g class="cls-11"><text class="cls-12" transform="matrix(0.87, 0.5, -0.5, 0.87, 310.55, 60.97)">$<tspan class="cls-13"><tspan x="-1.97" y="26">2</tspan><tspan x="-1.94" y="48">5</tspan><tspan x="-2.29" y="70">0</tspan><tspan x="-2.29" y="92">0</tspan></tspan></text></g><text class="cls-14" transform="matrix(0.87, 0.5, -0.5, 0.87, 307.55, 59.97)">$<tspan class="cls-13"><tspan x="-1.97" y="26">2</tspan><tspan x="-1.94" y="48">5</tspan><tspan x="-2.29" y="70">0</tspan><tspan x="-2.29" y="92">0</tspan></tspan></text><g class="cls-11"><text class="cls-12" transform="matrix(-0.5, 0.86, -0.86, -0.5, 387.8, 310.34)">$<tspan class="cls-13"><tspan x="-1.11" y="26">7</tspan><tspan x="-2.29" y="48">0</tspan><tspan x="-2.29" y="70">0</tspan></tspan></text></g><text class="cls-14" transform="matrix(-0.5, 0.86, -0.86, -0.5, 384.8, 309.34)">$<tspan class="cls-13"><tspan x="-1.11" y="26">7</tspan><tspan x="-2.29" y="48">0</tspan><tspan x="-2.29" y="70">0</tspan></tspan></text><g class="cls-11"><text class="cls-12" transform="matrix(-0.25, 0.97, -0.97, -0.25, 401.46, 263.74)">$<tspan class="cls-13"><tspan x="-2.1" y="26">9</tspan><tspan x="-2.29" y="48">0</tspan><tspan x="-2.29" y="70">0</tspan></tspan></text></g><text class="cls-14" transform="matrix(-0.25, 0.97, -0.97, -0.25, 398.46, 262.74)">$<tspan class="cls-13"><tspan x="-2.1" y="26">9</tspan><tspan x="-2.29" y="48">0</tspan><tspan x="-2.29" y="70">0</tspan></tspan></text><g class="cls-11"><text class="cls-12" transform="translate(399.34 169.94) rotate(72.45)">$<tspan class="cls-13"><tspan x="-1.97" y="26">2</tspan><tspan x="-1.94" y="48">5</tspan><tspan x="-2.29" y="70">0</tspan></tspan></text></g><text class="cls-14" transform="translate(396.34 168.94) rotate(72.45)">$<tspan class="cls-13"><tspan x="-1.97" y="26">2</tspan><tspan x="-1.94" y="48">5</tspan><tspan x="-2.29" y="70">0</tspan></tspan></text><g class="cls-11"><text class="cls-12" transform="matrix(0.54, 0.84, -0.84, 0.54, 382.28, 124.28)">$<tspan class="cls-13"><tspan x="-2.1" y="26">6</tspan><tspan x="-2.29" y="48">0</tspan><tspan x="-2.29" y="70">0</tspan></tspan></text></g><text class="cls-14" transform="matrix(0.54, 0.84, -0.84, 0.54, 379.28, 123.28)">$<tspan class="cls-13"><tspan x="-2.1" y="26">6</tspan><tspan x="-2.29" y="48">0</tspan><tspan x="-2.29" y="70">0</tspan></tspan></text><g class="cls-11"><text class="cls-12" transform="translate(349.28 89.32) rotate(42.64)">$<tspan class="cls-13"><tspan x="-1.94" y="26">5</tspan><tspan x="-2.29" y="48">0</tspan><tspan x="-2.29" y="70">0</tspan></tspan></text></g><text class="cls-14" transform="translate(346.28 88.32) rotate(42.64)">$<tspan class="cls-13"><tspan x="-1.94" y="26">5</tspan><tspan x="-2.29" y="48">0</tspan><tspan x="-2.29" y="70">0</tspan></tspan></text><g class="cls-11"><text class="cls-12" transform="translate(265.96 43.48) rotate(14.57)">$<tspan class="cls-13"><tspan x="-1.11" y="26">7</tspan><tspan x="-2.29" y="48">0</tspan><tspan x="-2.29" y="70">0</tspan></tspan></text></g><text class="cls-14" transform="translate(262.96 42.48) rotate(14.57)">$<tspan class="cls-13"><tspan x="-1.11" y="26">7</tspan><tspan x="-2.29" y="48">0</tspan><tspan x="-2.29" y="70">0</tspan></tspan></text></g></g></svg>